<svg width="44" height="44" viewBox="0 0 44 44" fill="none" xmlns="http://www.w3.org/2000/svg">
<path d="M22 3.66675C19.5925 3.66675 17.2085 4.14095 14.9842 5.06229C12.7599 5.98363 10.7388 7.33405 9.0364 9.03646C5.59823 12.4746 3.66669 17.1378 3.66669 22.0001C3.66669 30.1034 8.92835 36.9784 16.2067 39.4168C17.1234 39.5634 17.4167 38.9951 17.4167 38.5001V35.4018C12.3384 36.5018 11.2567 32.9451 11.2567 32.9451C10.4134 30.8184 9.22169 30.2501 9.22169 30.2501C7.55335 29.1134 9.35002 29.1501 9.35002 29.1501C11.1834 29.2784 12.155 31.0384 12.155 31.0384C13.75 33.8251 16.445 33.0001 17.49 32.5601C17.655 31.3684 18.1317 30.5618 18.645 30.1034C14.575 29.6451 10.3034 28.0684 10.3034 21.0834C10.3034 19.0484 11 17.4167 12.1917 16.1151C12.0084 15.6567 11.3667 13.7501 12.375 11.2751C12.375 11.2751 13.915 10.7801 17.4167 13.1451C18.865 12.7417 20.4417 12.5401 22 12.5401C23.5584 12.5401 25.135 12.7417 26.5834 13.1451C30.085 10.7801 31.625 11.2751 31.625 11.2751C32.6334 13.7501 31.9917 15.6567 31.8084 16.1151C33 17.4167 33.6967 19.0484 33.6967 21.0834C33.6967 28.0868 29.4067 29.6268 25.3184 30.0851C25.9784 30.6534 26.5834 31.7718 26.5834 33.4768V38.5001C26.5834 38.9951 26.8767 39.5818 27.8117 39.4168C35.09 36.9601 40.3334 30.1034 40.3334 22.0001C40.3334 19.5925 39.8591 17.2085 38.9378 14.9842C38.0165 12.7599 36.6661 10.7389 34.9636 9.03646C33.2612 7.33405 31.2402 5.98363 29.0159 5.06229C26.7916 4.14095 24.4076 3.66675 22 3.66675Z" fill="#FFFCF2"/>
</svg>
