<svg width="35" height="35" viewBox="0 0 35 35" fill="none" xmlns="http://www.w3.org/2000/svg">
<path d="M17.5 6.5625C10.2083 6.5625 3.93748 11.0833 1.45831 17.5C3.93748 23.9167 10.2083 28.4375 17.5 28.4375H19.1041C18.9583 28 18.9583 27.5625 18.9583 26.9792C18.9583 26.1042 19.1041 25.375 19.25 24.5C18.6666 24.6458 18.0833 24.7917 17.5 24.7917C13.4166 24.7917 10.2083 21.5833 10.2083 17.5C10.2083 13.4167 13.4166 10.2083 17.5 10.2083C21.5833 10.2083 24.7916 13.4167 24.7916 17.5C24.7916 17.9375 24.7916 18.375 24.6458 18.8125C25.6666 18.5208 26.6875 18.2292 27.7083 18.2292C29.4583 18.2292 31.0625 18.6667 32.5208 19.6875C32.9583 18.9583 33.25 18.2292 33.5416 17.5C31.0625 11.0833 24.7916 6.5625 17.5 6.5625ZM17.5 13.125C15.0208 13.125 13.125 15.0208 13.125 17.5C13.125 19.9792 15.0208 21.875 17.5 21.875C19.9791 21.875 21.875 19.9792 21.875 17.5C21.875 15.0208 19.9791 13.125 17.5 13.125ZM27.7083 30.625V27.7083H21.875V24.7917H27.7083V21.875L32.0833 26.25L27.7083 30.625Z" fill="#FFFCF2"/>
</svg>
